<mxfile host="app.diagrams.net" modified="2021-07-12T14:05:53.284Z" agent="5.0 (Windows NT 10.0; Win64; x64) AppleWebKit/537.36 (KHTML, like Gecko) Chrome/91.0.4472.124 Safari/537.36" etag="e1yOEP0ene7k0B1fQ9jn" version="14.8.0" type="github">
  <diagram id="NMWIawbUOysrmcAo3rH0" name="Page-1">
    <mxGraphModel dx="731" dy="402" grid="1" gridSize="10" guides="1" tooltips="1" connect="1" arrows="1" fold="1" page="1" pageScale="1" pageWidth="1169" pageHeight="827" math="0" shadow="0">
      <root>
        <mxCell id="0" />
        <mxCell id="1" parent="0" />
        <mxCell id="6EN68gSz8eEEFvAM6M62-57" value="Decentralized Swarm Control" style="rounded=0;whiteSpace=wrap;html=1;fillColor=#d5e8d4;strokeColor=#82b366;verticalAlign=top;" vertex="1" parent="1">
          <mxGeometry x="240" y="290" width="260" height="80" as="geometry" />
        </mxCell>
        <mxCell id="6EN68gSz8eEEFvAM6M62-51" value="UAV 1" style="rounded=0;whiteSpace=wrap;html=1;fillColor=#bac8d3;strokeColor=#23445d;" vertex="1" parent="1">
          <mxGeometry x="300" y="320" width="50" height="50" as="geometry" />
        </mxCell>
        <mxCell id="6EN68gSz8eEEFvAM6M62-52" value="UAV 2" style="rounded=0;whiteSpace=wrap;html=1;fillColor=#bac8d3;strokeColor=#23445d;" vertex="1" parent="1">
          <mxGeometry x="360" y="320" width="50" height="50" as="geometry" />
        </mxCell>
        <mxCell id="6EN68gSz8eEEFvAM6M62-53" value="UAV n" style="rounded=0;whiteSpace=wrap;html=1;fillColor=#bac8d3;strokeColor=#23445d;" vertex="1" parent="1">
          <mxGeometry x="450" y="320" width="50" height="50" as="geometry" />
        </mxCell>
        <mxCell id="6EN68gSz8eEEFvAM6M62-54" value="&lt;font style=&quot;font-size: 19px&quot;&gt;... ...&lt;/font&gt;" style="text;html=1;strokeColor=none;fillColor=none;align=center;verticalAlign=middle;whiteSpace=wrap;rounded=0;" vertex="1" parent="1">
          <mxGeometry x="410" y="330" width="40" height="20" as="geometry" />
        </mxCell>
        <mxCell id="6EN68gSz8eEEFvAM6M62-56" value="UAV 0&lt;br&gt;(Vitural)" style="rounded=0;whiteSpace=wrap;html=1;fillColor=#e1d5e7;strokeColor=#9673a6;" vertex="1" parent="1">
          <mxGeometry x="240" y="320" width="50" height="50" as="geometry" />
        </mxCell>
      </root>
    </mxGraphModel>
  </diagram>
</mxfile>
